#N canvas 488 2 358 326 10;
#X obj 525 -149 inlet;
#X obj 574 37 mtof;
#X obj 307 -142 inlet;
#X text 308 -166 sensors;
#X obj 356 -105 / 3;
#X obj 555 -34 *;
#X obj 348 -41 % 18;
#X obj 366 -12 / 6;
#X obj 541 0 +;
#X text 527 -169 value;
#X obj 555 72 outlet;
#X obj 342 14 * -1;
#X obj 350 39 + 23.5;
#X connect 0 0 5 0;
#X connect 1 0 10 0;
#X connect 2 0 4 0;
#X connect 2 0 6 0;
#X connect 4 0 5 1;
#X connect 5 0 8 0;
#X connect 6 0 7 0;
#X connect 7 0 11 0;
#X connect 8 0 1 0;
#X connect 11 0 12 0;
#X connect 12 0 8 1;
