#N canvas 291 521 346 329 10;
#X obj 52 46 inlet;
#X obj 128 45 inlet;
#X obj 192 48 inlet;
#X obj 259 48 inlet;
#X obj 18 94 chimaera_mtof;
#X obj 200 294 outlet~;
#X text 37 20 sensor;
#X text 103 20 x-dimension;
#X text 191 20 z-dimension;
#X text 276 20 gate;
#X obj 69 173 phasor~;
#X obj 163 157 sig~;
#X obj 127 209 vcf~ 9;
#X obj 155 86 * 127;
#X obj 128 112 mtof;
#X obj 258 129 line~;
#X obj 202 260 *~;
#X obj 236 92 pack f 1;
#X connect 0 0 4 0;
#X connect 1 0 4 1;
#X connect 2 0 13 0;
#X connect 3 0 17 0;
#X connect 4 0 10 0;
#X connect 10 0 12 0;
#X connect 11 0 12 1;
#X connect 12 0 16 0;
#X connect 13 0 14 0;
#X connect 14 0 11 0;
#X connect 15 0 16 1;
#X connect 16 0 5 0;
#X connect 17 0 15 0;
