#N canvas 487 1 930 554 10;
#X obj 229 175 packOSC;
#X msg 92 134 disconnect;
#X msg 44 114 connect chimaera.local 4444;
#X obj 178 211 udpsend;
#X obj 695 326 udpreceive 4444;
#X obj 722 362 unpackOSC;
#X obj 697 391 routeOSC /success /fail;
#X msg 381 207 send /sensors/number 13;
#X obj 667 429 print success;
#X obj 799 428 print fail;
#X obj 382 328 tcpreceive 3333;
#X obj 412 368 unpackOSCstream;
#X msg 284 65 send /engines/mode 13 osc.slip.tcp;
#X msg 304 89 send /engines/enabled 13 1;
#X msg 269 38 send /engines/enabled 13 0;
#X msg 324 114 send /engines/oscmidi/enabled 13 1;
#X obj 382 402 routeOSC /midi;
#X obj 381 478 midiout;
#N canvas 1 702 466 428 oscmidi2rawmidi 1;
#X obj 239 -82 inlet;
#X obj 138 45 >> 24;
#X obj 211 45 >> 16;
#X obj 286 45 >> 8;
#X obj 303 78 & 127;
#X obj 386 76 & 127;
#X obj 165 86 & 15;
#X obj 234 84 & 240;
#X obj 365 41 >> 0;
#X obj 198 126 |;
#X obj 333 268 outlet;
#X obj 230 168 pack f f f;
#X obj 265 -44 listto;
#X obj 253 206 listto;
#X obj 461 -82 inlet;
#X obj 359 241 pipe;
#X text 211 -107 OSC MIDI 4 bytes;
#X text 441 -109 OSC Timestamp;
#X text 311 293 RAW MIDI bytes;
#X text 165 64 channel;
#X text 236 64 system;
#X text 306 61 data 1;
#X text 388 57 data 2;
#X connect 0 0 12 0;
#X connect 1 0 6 0;
#X connect 2 0 7 0;
#X connect 3 0 4 0;
#X connect 4 0 11 1;
#X connect 5 0 11 2;
#X connect 6 0 9 0;
#X connect 7 0 9 1;
#X connect 8 0 5 0;
#X connect 9 0 11 0;
#X connect 11 0 13 0;
#X connect 12 0 1 0;
#X connect 12 0 2 0;
#X connect 12 0 3 0;
#X connect 12 0 8 0;
#X connect 13 0 15 0;
#X connect 14 0 15 1;
#X connect 15 0 10 0;
#X restore 400 442 pd oscmidi2rawmidi;
#X text 42 87 STEP 1: connect to Chimaera;
#X text 267 11 STEP 2: configure Chimaera;
#X text 671 293 Configuration replies;
#X text 360 292 OSCMIDI to RAW MIDI conversion;
#X msg 355 159 sendtyped /engines/oscmidi/range if 13 32;
#X msg 340 136 sendtyped /engines/oscmidi/offset if 13 34.5;
#X msg 368 184 sendtyped /engines/oscmidi/effect ii 13 7;
#X text 702 511 Copyright (c) 2014 Hanspeter Portner (dev@open-music-kontrollers.ch)Released
under the zlib license.;
#X connect 0 0 3 0;
#X connect 1 0 3 0;
#X connect 2 0 3 0;
#X connect 4 0 5 0;
#X connect 5 0 6 0;
#X connect 6 0 8 0;
#X connect 6 1 9 0;
#X connect 7 0 0 0;
#X connect 10 0 11 0;
#X connect 11 0 16 0;
#X connect 11 1 18 1;
#X connect 12 0 0 0;
#X connect 13 0 0 0;
#X connect 14 0 0 0;
#X connect 15 0 0 0;
#X connect 16 0 18 0;
#X connect 18 0 17 0;
#X connect 23 0 0 0;
#X connect 24 0 0 0;
#X connect 25 0 0 0;
