#N canvas 867 3 1054 674 10;
#X declare -lib mrpeach;
#X obj 166 481 routeOSC /on /set /off /idle;
#X obj 174 750 dac~;
#X obj 12 417 tcpreceive 3333;
#X obj 76 447 unpackOSCstream;
#X text 813 715 Copyright (c) 2014 Hanspeter Portner(dev@open-music-kontrollers.ch)Released
under the zlib licence.;
#X obj 76 624 spray 2;
#X obj 54 593 pack f f;
#X text 1 624 x dimension;
#X text 213 622 z dimension;
#X obj 143 590 pack f f;
#X obj 162 621 spray 2;
#X obj 307 622 spray 2;
#X text 358 623 gate;
#X obj 334 591 pack f 0;
#X obj 268 591 pack f 1;
#X obj 275 524 unpack f f f;
#X obj 354 347 list split 1;
#X obj 420 376 list trim;
#X floatatom 414 426 5 0 0 0 - - -, f 5;
#X obj 115 692 chimaera_sine;
#X obj 271 691 chimaera_sine;
#X obj 379 401 route /sensors/number;
#X msg 418 189 disconnect;
#X msg 417 165 connect chimaera.local 4444;
#X obj 384 292 routeOSC /success /fail;
#X obj 404 326 print success;
#X obj 495 325 print fail;
#X obj 3 109 import mrpeach;
#X msg 53 172 connect chimaera.local 4444;
#X msg 54 233 disconnect;
#X obj 4 262 udpsend;
#X obj 380 216 tcpclient;
#X obj 404 265 unpackOSCstream;
#X obj 545 233 packOSCstream;
#X obj 53 202 packOSC;
#X msg 107 202 sendtyped /config/mode is 13 osc.slip.tcp;
#X obj 433 245 tgl 15 0 empty empty connected 17 7 0 10 -258113 -1
-1 1 1;
#X text 3 143 STEP 1: Put Chimaera Config Socket into TCP mode;
#X text 379 140 STEP 2: Connect to Chimaera Config Socket;
#X text 672 140 STEP 3: Configure Chimaera Output for UDP and TUIO1
;
#X msg 672 162 sendtyped /engines/enabled ii 13 0;
#X msg 671 185 sendtyped /engines/server ii 13 0;
#X msg 671 226 sendtyped /engines/address is 13 melamori.local:3333
;
#X msg 671 245 sendtyped /engines/enabled ii 13 1;
#X msg 673 266 sendtyped /engines/reset i 13;
#X msg 674 327 sendtyped /sensors/number i 13;
#X msg 672 640 sendtyped /sensors/rate ii 13 2000;
#X text 4 395 STEP 4: Receive Chimaera Event Data;
#X msg 674 286 sendtyped /engines/dummy/enabled ii 13 1;
#X msg 671 207 sendtyped /engines/mode is 13 osc.slip.tcp;
#X msg 675 306 sendtyped /engines/dummy/redundancy ii 13 1;
#X obj 117 526 unpack f f f f f;
#X msg 642 661 sendtyped /config/mode is 13 osc.udp;
#X msg 675 374 sendtyped /sensors/group/attributes/0/min if 13 0;
#X msg 675 397 sendtyped /sensors/group/attributes/0/max if 13 1;
#X msg 675 420 sendtyped /sensors/group/attributes/0/north ii 13 0
;
#X msg 675 518 sendtyped /sensors/group/attributes/1/max if 13 1;
#X msg 675 541 sendtyped /sensors/group/attributes/1/north ii 13 1
;
#X msg 675 494 sendtyped /sensors/group/attributes/1/min if 13 0;
#X msg 675 443 sendtyped /sensors/group/attributes/0/south ii 13 1
;
#X msg 675 466 sendtyped /sensors/group/attributes/0/scale ii 13 0
;
#X msg 675 564 sendtyped /sensors/group/attributes/1/south ii 13 0
;
#X msg 675 587 sendtyped /sensors/group/attributes/1/scale ii 13 0
;
#X connect 0 0 51 0;
#X connect 0 1 51 0;
#X connect 0 2 15 0;
#X connect 2 0 3 0;
#X connect 3 0 0 0;
#X connect 5 0 19 1;
#X connect 5 1 20 1;
#X connect 6 0 5 0;
#X connect 9 0 10 0;
#X connect 10 0 19 2;
#X connect 10 1 20 2;
#X connect 11 0 19 3;
#X connect 11 1 20 3;
#X connect 13 0 11 0;
#X connect 14 0 11 0;
#X connect 15 1 13 0;
#X connect 16 1 17 0;
#X connect 17 0 21 0;
#X connect 18 0 19 0;
#X connect 18 0 20 0;
#X connect 19 0 1 0;
#X connect 20 0 1 1;
#X connect 21 0 18 0;
#X connect 22 0 31 0;
#X connect 23 0 31 0;
#X connect 24 0 25 0;
#X connect 24 0 16 0;
#X connect 24 1 26 0;
#X connect 28 0 30 0;
#X connect 29 0 30 0;
#X connect 31 0 32 0;
#X connect 31 2 36 0;
#X connect 32 0 24 0;
#X connect 33 0 31 0;
#X connect 34 0 30 0;
#X connect 35 0 34 0;
#X connect 40 0 33 0;
#X connect 41 0 33 0;
#X connect 42 0 33 0;
#X connect 43 0 33 0;
#X connect 44 0 33 0;
#X connect 45 0 33 0;
#X connect 46 0 33 0;
#X connect 48 0 33 0;
#X connect 49 0 33 0;
#X connect 50 0 33 0;
#X connect 51 1 6 0;
#X connect 51 1 9 0;
#X connect 51 1 14 0;
#X connect 51 3 6 1;
#X connect 51 4 9 1;
#X connect 52 0 33 0;
#X connect 53 0 33 0;
#X connect 54 0 33 0;
#X connect 55 0 33 0;
#X connect 56 0 33 0;
#X connect 57 0 33 0;
#X connect 58 0 33 0;
#X connect 59 0 33 0;
#X connect 60 0 33 0;
#X connect 61 0 33 0;
#X connect 62 0 33 0;
