#N canvas 476 30 936 821 10;
#X obj 146 12 udpreceive 3333;
#X obj 146 55 unpackOSC;
#X obj 296 181 unpack i i i;
#X obj 146 98 routeOSC /on /set /off /idle;
#X obj 147 310 mtof;
#X obj 197 459 dac~;
#X obj 197 416 *~ 0.5;
#X obj 147 353 phasor~;
#X obj 197 373 lop~;
#X obj 194 300 * 100;
#X obj 147 224 * 33;
#X obj 147 267 + 31.5;
#X obj 145 179 unpack i i i f f f;
#X floatatom 51 223 5 0 0 0 - - -, f 5;
#X floatatom 51 250 5 0 0 0 - - -, f 5;
#X text -15 223 Blob ID;
#X text -15 250 Group ID;
#X text -14 275 Polarity;
#X obj 51 278 >> 8;
#X obj 52 306 vradio 15 1 0 2 empty empty empty 0 -8 0 10 -262144 -1
-1 0;
#X text 70 321 south;
#X text 70 306 north;
#X text -13 294;
#X connect 0 0 1 0;
#X connect 1 0 3 0;
#X connect 3 0 12 0;
#X connect 3 1 12 0;
#X connect 3 2 2 0;
#X connect 4 0 7 0;
#X connect 6 0 5 0;
#X connect 6 0 5 1;
#X connect 7 0 8 0;
#X connect 8 0 6 0;
#X connect 9 0 8 1;
#X connect 10 0 11 0;
#X connect 11 0 4 0;
#X connect 12 0 13 0;
#X connect 12 1 14 0;
#X connect 12 2 18 0;
#X connect 12 3 10 0;
#X connect 12 4 6 1;
#X connect 12 4 9 0;
#X connect 18 0 19 0;
