#N canvas 487 1 936 821 10;
#X obj 296 181 unpack i i i;
#X obj 146 98 routeOSC /on /set /off /idle;
#X obj 197 459 dac~;
#X obj 145 179 unpack i i i f f f;
#X floatatom 51 223 5 0 0 0 - - -, f 5;
#X floatatom 51 250 5 0 0 0 - - -, f 5;
#X text -15 223 Blob ID;
#X text -15 250 Group ID;
#X text -14 275 Polarity;
#X obj 51 278 >> 8;
#X obj 52 306 vradio 15 1 0 2 empty empty empty 0 -8 0 10 -262144 -1
-1 1;
#X text 70 321 south;
#X text 70 306 north;
#X text -13 294 comment;
#X obj 201 689 packOSC;
#X msg 38 639 disconnect;
#X msg 12 619 connect chimaera.local 4444;
#X obj 138 755 udpsend;
#X obj 537 603 udpreceive 4444;
#X obj 538 633 unpackOSC;
#X obj 537 670 routeOSC /success /fail;
#X msg 225 637 send /sensors/number 13;
#X obj 503 730 print success;
#X obj 641 723 print fail;
#X obj 761 567 udpreceive 6666;
#X obj 146 12 tcpreceive 3333;
#X obj 15 161 print;
#X obj 28 62 unpackOSCstream;
#X obj 13 99 routeOSC /dump;
#X obj -1 130 unpack i b;
#X obj 148 56 unpackOSCstream;
#X msg 182 581 send /engines/mode 13 osc.slip.tcp;
#X msg 214 619 send /engines/dummy/enabled 13 1;
#X msg 200 599 send /engines/enabled 13 1;
#X msg 165 562 send /engines/enabled 13 0;
#N canvas 1322 679 450 300 mux 1;
#X obj 7 210 spigot;
#X obj 17 184 == 0;
#X obj 79 9 inlet;
#X obj 15 271 outlet;
#X obj 64 271 outlet;
#X obj 116 270 outlet;
#X obj 168 272 outlet;
#X obj 219 274 outlet;
#X obj 269 276 outlet;
#X obj 318 272 outlet;
#X obj 368 274 outlet;
#X obj 61 214 spigot;
#X obj 117 214 spigot;
#X obj 169 216 spigot;
#X obj 217 220 spigot;
#X obj 265 214 spigot;
#X obj 317 212 spigot;
#X obj 369 212 spigot;
#X obj 71 188 == 1;
#X obj 127 188 == 2;
#X obj 179 190 == 3;
#X obj 227 194 == 4;
#X obj 275 188 == 5;
#X obj 327 186 == 6;
#X obj 379 186 == 7;
#X obj 334 55 inlet;
#X connect 0 0 3 0;
#X connect 1 0 0 1;
#X connect 2 0 0 0;
#X connect 2 0 11 0;
#X connect 2 0 12 0;
#X connect 2 0 13 0;
#X connect 2 0 14 0;
#X connect 2 0 15 0;
#X connect 2 0 16 0;
#X connect 2 0 17 0;
#X connect 11 0 4 0;
#X connect 12 0 5 0;
#X connect 13 0 6 0;
#X connect 14 0 7 0;
#X connect 15 0 8 0;
#X connect 16 0 9 0;
#X connect 17 0 10 0;
#X connect 18 0 11 1;
#X connect 19 0 12 1;
#X connect 20 0 13 1;
#X connect 21 0 14 1;
#X connect 22 0 15 1;
#X connect 23 0 16 1;
#X connect 24 0 17 1;
#X connect 25 0 1 0;
#X connect 25 0 18 0;
#X connect 25 0 19 0;
#X connect 25 0 20 0;
#X connect 25 0 21 0;
#X connect 25 0 22 0;
#X connect 25 0 23 0;
#X connect 25 0 24 0;
#X restore 253 277 pd mux;
#N canvas 1 673 466 337 inst 1;
#X obj 141 210 mtof;
#X obj 197 320 *~ 0.5;
#X obj 149 251 phasor~;
#X obj 199 271 lop~;
#X obj 190 208 * 100;
#X obj 147 77 unpack i i i f f f;
#X obj 144 171 + 35.166;
#X obj 157 385 outlet~;
#X obj 147 134 * 42.66;
#X obj 72 117 inlet;
#X connect 0 0 2 0;
#X connect 1 0 7 0;
#X connect 2 0 3 0;
#X connect 3 0 1 0;
#X connect 4 0 3 1;
#X connect 5 3 8 0;
#X connect 5 4 1 1;
#X connect 5 4 4 0;
#X connect 6 0 0 0;
#X connect 8 0 6 0;
#X connect 9 0 5 0;
#X restore 176 344 pd inst;
#N canvas 469 673 466 337 inst 1;
#X obj 141 210 mtof;
#X obj 197 320 *~ 0.5;
#X obj 149 251 phasor~;
#X obj 199 271 lop~;
#X obj 190 208 * 100;
#X obj 147 77 unpack i i i f f f;
#X obj 144 171 + 35.166;
#X obj 157 385 outlet~;
#X obj 147 134 * 42.66;
#X obj 72 117 inlet;
#X connect 0 0 2 0;
#X connect 1 0 7 0;
#X connect 2 0 3 0;
#X connect 3 0 1 0;
#X connect 4 0 3 1;
#X connect 5 3 8 0;
#X connect 5 4 1 1;
#X connect 5 4 4 0;
#X connect 6 0 0 0;
#X connect 8 0 6 0;
#X connect 9 0 5 0;
#X restore 238 342 pd inst;
#X connect 1 0 3 0;
#X connect 1 0 35 0;
#X connect 1 1 3 0;
#X connect 1 1 35 0;
#X connect 1 2 0 0;
#X connect 3 0 4 0;
#X connect 3 1 5 0;
#X connect 3 1 35 1;
#X connect 3 2 9 0;
#X connect 9 0 10 0;
#X connect 14 0 17 0;
#X connect 15 0 17 0;
#X connect 16 0 17 0;
#X connect 18 0 19 0;
#X connect 19 0 20 0;
#X connect 20 0 22 0;
#X connect 20 1 23 0;
#X connect 21 0 14 0;
#X connect 25 0 27 0;
#X connect 25 0 30 0;
#X connect 27 0 28 0;
#X connect 28 0 29 0;
#X connect 29 0 26 0;
#X connect 30 0 1 0;
#X connect 31 0 14 0;
#X connect 32 0 14 0;
#X connect 33 0 14 0;
#X connect 34 0 14 0;
#X connect 35 0 36 0;
#X connect 35 1 37 0;
#X connect 36 0 2 0;
#X connect 37 0 2 1;
