#N struct blob float sid float gid float x float y float p;
#N canvas 983 3 936 821 10;
#X obj 166 481 routeOSC /on /set /off /idle;
#X obj 174 750 dac~;
#X obj 193 272 packOSC;
#X msg 66 123 disconnect;
#X msg 40 103 connect chimaera.local 4444;
#X obj 154 327 udpsend;
#X obj 706 62 udpreceive 4444;
#X obj 707 92 unpackOSC;
#X obj 724 181 print success;
#X obj 810 182 print fail;
#X obj 162 411 tcpreceive 3333;
#X obj 188 447 unpackOSCstream;
#X msg 278 196 sendtyped /sensors/group/attributes/1 iffiii 13 0 1
1 0 0;
#X msg 265 170 sendtyped /sensors/group/attributes/0 iffiii 13 0 1
0 1 0;
#X text 189 2 STEP 2: Configure Chimaera;
#X text 17 61 STEP 1: Connect to Chimaera;
#X text 128 385 Receive Chimaera Event Data;
#X text 681 23 Receive Configuration Replies;
#X text 686 757 Copyright (c) 2014 Hanspeter Portner(dev@open-music-kontrollers.ch)Released
under the zlib licence.;
#X obj 76 624 spray 2;
#X obj 54 593 pack f f;
#X text 1 624 x dimension;
#X text 213 622 z dimension;
#X obj 143 590 pack f f;
#X obj 162 621 spray 2;
#X obj 307 622 spray 2;
#X text 358 623 gate;
#X obj 334 591 pack f 0;
#X obj 268 591 pack f 1;
#X obj 706 129 routeOSC /success /fail;
#X obj 117 526 unpack f f f f f f;
#X obj 275 524 unpack f f f;
#X obj 674 205 list split 1;
#X obj 672 234 list trim;
#X floatatom 664 314 5 0 0 0 - - -, f 5;
#X obj 115 692 chimaera_sine;
#X obj 271 691 chimaera_sine;
#X obj 551 598 struct blob float sid float gid float x float y float
p;
#X obj 573 650 print;
#X obj 171 2 bng 15 250 50 0 empty empty empty 17 7 0 10 -262144 -1
-1;
#X msg 205 30 sendtyped /engines/enabled ii 13 0;
#X msg 214 53 sendtyped /engines/server ii 13 0;
#X msg 226 75 sendtyped /engines/mode is 13 osc.slip.tcp;
#X msg 234 99 sendtyped /engines/enabled ii 13 1;
#X msg 247 122 sendtyped /engines/dummy/enabled ii 13 1;
#X msg 256 145 sendtyped /sensors/number i 13;
#X obj 631 270 route /sensors/number;
#X obj 132 327 tgl 15 0 empty empty empty 17 7 0 10 -262144 -1 -1 1
1;
#X connect 0 0 30 0;
#X connect 0 1 30 0;
#X connect 0 2 31 0;
#X connect 2 0 5 0;
#X connect 3 0 5 0;
#X connect 4 0 5 0;
#X connect 5 0 47 0;
#X connect 6 0 7 0;
#X connect 7 0 29 0;
#X connect 10 0 11 0;
#X connect 11 0 0 0;
#X connect 12 0 2 0;
#X connect 13 0 2 0;
#X connect 19 0 35 1;
#X connect 19 1 36 1;
#X connect 20 0 19 0;
#X connect 23 0 24 0;
#X connect 24 0 35 2;
#X connect 24 1 36 2;
#X connect 25 0 35 3;
#X connect 25 1 36 3;
#X connect 27 0 25 0;
#X connect 28 0 25 0;
#X connect 29 0 32 0;
#X connect 29 0 8 0;
#X connect 29 1 9 0;
#X connect 30 1 20 0;
#X connect 30 1 23 0;
#X connect 30 1 28 0;
#X connect 30 3 20 1;
#X connect 30 4 23 1;
#X connect 31 1 27 0;
#X connect 32 1 33 0;
#X connect 33 0 46 0;
#X connect 34 0 35 0;
#X connect 34 0 36 0;
#X connect 35 0 1 0;
#X connect 36 0 1 1;
#X connect 37 0 38 0;
#X connect 39 0 40 0;
#X connect 39 0 41 0;
#X connect 39 0 42 0;
#X connect 39 0 43 0;
#X connect 39 0 44 0;
#X connect 39 0 45 0;
#X connect 39 0 13 0;
#X connect 39 0 12 0;
#X connect 40 0 2 0;
#X connect 41 0 2 0;
#X connect 42 0 2 0;
#X connect 43 0 2 0;
#X connect 44 0 2 0;
#X connect 45 0 2 0;
#X connect 46 0 34 0;
