#N canvas 490 4 930 602 10;
#X obj 229 175 packOSC;
#X msg 92 134 disconnect;
#X msg 43 114 connect chimaera.local 4444;
#X obj 178 211 udpsend;
#X obj 693 344 udpreceive 4444;
#X obj 720 380 unpackOSC;
#X obj 695 409 routeOSC /success /fail;
#X obj 665 447 print success;
#X obj 797 446 print fail;
#X obj 380 346 tcpreceive 3333;
#X obj 410 386 unpackOSCstream;
#X obj 380 420 routeOSC /midi;
#N canvas 1 446 570 554 oscmidi2rawmidi 1;
#X obj 239 -82 inlet;
#X obj 288 55 >> 8;
#X obj 315 86 & 127;
#X obj 468 94 & 127;
#X obj 265 -44 listto;
#X obj 461 -82 inlet;
#X text 211 -107 OSC MIDI 4 bytes;
#X text 441 -109 OSC Timestamp;
#X text 322 55 data 1;
#X text 474 59 data 2;
#X obj 111 47 >> 0;
#X obj 439 61 >> 16;
#X obj 78 80 & 240;
#X obj 180 76 & 15;
#X text 117 80 system;
#X text 213 74 channel;
#X obj 217 145 pack f f f f;
#X obj 327 299 ctlout;
#X obj 419 298 touchout;
#X obj 206 299 polytouchout;
#X obj 124 299 noteout;
#X msg 239 242 \$2 \$3 \$1;
#X msg 451 244 \$2 \$1;
#X obj 495 298 bendout;
#X msg 349 242 \$3 \$2 \$1;
#X obj 241 182 route 128 144 160 176 208 224;
#X msg 79 239 \$2 0 \$1;
#X msg 157 239 \$2 \$3 \$1;
#X msg 526 246 \$2 \$1;
#X connect 0 0 4 0;
#X connect 1 0 2 0;
#X connect 2 0 16 2;
#X connect 3 0 16 3;
#X connect 4 0 1 0;
#X connect 4 0 10 0;
#X connect 4 0 11 0;
#X connect 10 0 12 0;
#X connect 10 0 13 0;
#X connect 11 0 3 0;
#X connect 12 0 16 0;
#X connect 13 0 16 1;
#X connect 16 0 25 0;
#X connect 21 0 19 0;
#X connect 22 0 18 0;
#X connect 24 0 17 0;
#X connect 25 0 26 0;
#X connect 25 1 27 0;
#X connect 25 2 21 0;
#X connect 25 3 24 0;
#X connect 25 4 22 0;
#X connect 25 5 28 0;
#X connect 26 0 20 0;
#X connect 27 0 20 0;
#X connect 28 0 23 0;
#X restore 398 460 pd oscmidi2rawmidi;
#X text 42 87 STEP 1: connect to Chimaera;
#X text 267 11 STEP 2: configure Chimaera;
#X text 669 311 Configuration replies;
#X text 358 310 OSCMIDI to RAW MIDI conversion;
#X msg 361 237 sendtyped /engines/oscmidi/range if 13 32;
#X msg 348 216 sendtyped /engines/oscmidi/offset if 13 34.5;
#X text 700 529 Copyright (c) 2014 Hanspeter Portner (dev@open-music-kontrollers.ch)Released
under the zlib license.;
#X msg 376 258 sendtyped /engines/oscmidi/control ii 13 7;
#X msg 269 38 sendtyped /engines/enabled ii 13 0;
#X msg 276 53 sendtyped /engines/server ii 13 0;
#X msg 288 71 sendtyped /engines/mode is 13 osc.slip.tcp;
#X msg 304 113 sendtyped /engines/enabled ii 13 1;
#X msg 322 132 sendtyped /engines/oscmidi/enabled ii 13 1;
#X msg 404 279 sendtyped /sensors/number i 13;
#X msg 334 158 sendtyped /engines/oscmidi/path is 13 /midi;
#X msg 345 180 sendtyped /engines/oscmidi/format is 13 int32;
#X msg 349 197 sendtyped /engines/oscmidi/mapping is 13 control_change
;
#X msg 295 92 sendtyped /engines/address is 13 192.168.1.10:3333;
#X connect 0 0 3 0;
#X connect 1 0 3 0;
#X connect 2 0 3 0;
#X connect 4 0 5 0;
#X connect 5 0 6 0;
#X connect 6 0 7 0;
#X connect 6 1 8 0;
#X connect 9 0 10 0;
#X connect 10 0 11 0;
#X connect 10 1 12 1;
#X connect 11 0 12 0;
#X connect 17 0 0 0;
#X connect 18 0 0 0;
#X connect 20 0 0 0;
#X connect 21 0 0 0;
#X connect 22 0 0 0;
#X connect 23 0 0 0;
#X connect 24 0 0 0;
#X connect 25 0 0 0;
#X connect 26 0 0 0;
#X connect 27 0 0 0;
#X connect 28 0 0 0;
#X connect 29 0 0 0;
#X connect 30 0 0 0;
