#N canvas 487 1 936 821 10;
#X obj 275 524 unpack i i i;
#X obj 166 481 routeOSC /on /set /off /idle;
#X obj 174 750 dac~;
#X obj 117 526 unpack i i i f f f;
#X obj 229 195 packOSC;
#X msg 66 123 disconnect;
#X msg 40 103 connect chimaera.local 4444;
#X obj 166 239 udpsend;
#X obj 706 62 udpreceive 4444;
#X obj 707 92 unpackOSC;
#X obj 706 129 routeOSC /success /fail;
#X msg 253 121 send /sensors/number 13;
#X obj 672 189 print success;
#X obj 810 182 print fail;
#X obj 162 411 tcpreceive 3333;
#X obj 188 447 unpackOSCstream;
#X msg 210 65 send /engines/mode 13 osc.slip.tcp;
#X msg 242 103 send /engines/dummy/enabled 13 1;
#X msg 228 83 send /engines/enabled 13 1;
#X msg 193 46 send /engines/enabled 13 0;
#X msg 280 165 sendtyped /sensors/group/attributes/1 iffiii 13 0 1
1 0 0;
#X msg 264 142 sendtyped /sensors/group/attributes/0 iffiii 13 0 1
0 1 0;
#X text 187 12 STEP 2: Configure Chimaera;
#X text 17 61 STEP 1: Connect to Chimaera;
#X text 128 385 Receive Chimaera Event Data;
#X text 681 23 Receive Configuration Replies;
#X text 686 757 Copyright (c) 2014 Hanspeter Portner(dev@open-music-kontrollers.ch)Released
under the zlib licence.;
#X obj 76 624 spray 2;
#X obj 54 593 pack f f;
#X text 1 624 x dimension;
#X text 213 622 z dimension;
#X obj 143 590 pack f f;
#X obj 162 621 spray 2;
#X obj 307 622 spray 2;
#X text 358 623 gate;
#X obj 334 591 pack f 0;
#X obj 268 591 pack f 1;
#N canvas 1 492 450 300 simplesine 1;
#X obj 211 151 inlet;
#X obj 370 149 inlet;
#X obj 538 150 inlet;
#X text 201 131 x dimension;
#X text 365 128 z dimension;
#X text 539 128 gate;
#X obj 386 387 outlet~;
#X obj 229 186 * 32;
#X obj 215 220 + 34.5;
#X obj 248 257 mtof;
#X obj 361 348 *~;
#X obj 334 196 sig~;
#X obj 282 303 osc~;
#X obj 463 237 line~;
#X obj 407 307 *~;
#X obj 503 185 pack f 1;
#X connect 0 0 7 0;
#X connect 1 0 11 0;
#X connect 2 0 15 0;
#X connect 7 0 8 0;
#X connect 8 0 9 0;
#X connect 9 0 12 0;
#X connect 10 0 6 0;
#X connect 11 0 14 0;
#X connect 12 0 10 0;
#X connect 13 0 14 1;
#X connect 14 0 10 1;
#X connect 15 0 13 0;
#X restore 115 686 pd simplesine;
#N canvas 1 819 450 300 simplesine 1;
#X obj 36 26 inlet;
#X obj 195 24 inlet;
#X obj 363 25 inlet;
#X text 26 6 x dimension;
#X text 190 3 z dimension;
#X text 364 3 gate;
#X obj 211 262 outlet~;
#X obj 54 61 * 32;
#X obj 40 95 + 34.5;
#X obj 73 132 mtof;
#X obj 186 223 *~;
#X obj 159 71 sig~;
#X obj 107 178 osc~;
#X obj 288 112 line~;
#X obj 232 182 *~;
#X obj 328 60 pack f 1;
#X connect 0 0 7 0;
#X connect 1 0 11 0;
#X connect 2 0 15 0;
#X connect 7 0 8 0;
#X connect 8 0 9 0;
#X connect 9 0 12 0;
#X connect 10 0 6 0;
#X connect 11 0 14 0;
#X connect 12 0 10 0;
#X connect 13 0 14 1;
#X connect 14 0 10 1;
#X connect 15 0 13 0;
#X restore 225 685 pd simplesine;
#X connect 0 1 35 0;
#X connect 1 0 3 0;
#X connect 1 1 3 0;
#X connect 1 2 0 0;
#X connect 3 1 28 0;
#X connect 3 1 31 0;
#X connect 3 1 36 0;
#X connect 3 3 28 1;
#X connect 3 4 31 1;
#X connect 4 0 7 0;
#X connect 5 0 7 0;
#X connect 6 0 7 0;
#X connect 8 0 9 0;
#X connect 9 0 10 0;
#X connect 10 0 12 0;
#X connect 10 1 13 0;
#X connect 11 0 4 0;
#X connect 14 0 15 0;
#X connect 15 0 1 0;
#X connect 16 0 4 0;
#X connect 17 0 4 0;
#X connect 18 0 4 0;
#X connect 19 0 4 0;
#X connect 20 0 4 0;
#X connect 21 0 4 0;
#X connect 27 0 37 0;
#X connect 27 1 38 0;
#X connect 28 0 27 0;
#X connect 31 0 32 0;
#X connect 32 0 37 1;
#X connect 32 1 38 1;
#X connect 33 0 37 2;
#X connect 33 1 38 2;
#X connect 35 0 33 0;
#X connect 36 0 33 0;
#X connect 37 0 2 0;
#X connect 38 0 2 1;
